<svg width="300" height="200" viewBox="0 0 300 200" xmlns="http://www.w3.org/2000/svg">
  <defs>
    <linearGradient id="bg" x1="0%" y1="0%" x2="100%" y2="100%">
      <stop offset="0%" style="stop-color:#e74c3c;stop-opacity:1" />
      <stop offset="100%" style="stop-color:#c0392b;stop-opacity:1" />
    </linearGradient>
  </defs>
  
  <rect width="300" height="200" fill="url(#bg)"/>
  
  <!-- Chart bars -->
  <rect x="40" y="120" width="20" height="50" fill="white" opacity="0.8"/>
  <rect x="70" y="100" width="20" height="70" fill="white" opacity="0.9"/>
  <rect x="100" y="80" width="20" height="90" fill="white"/>
  <rect x="130" y="90" width="20" height="80" fill="white" opacity="0.9"/>
  <rect x="160" y="110" width="20" height="60" fill="white" opacity="0.8"/>
  <rect x="190" y="70" width="20" height="100" fill="white"/>
  <rect x="220" y="95" width="20" height="75" fill="white" opacity="0.9"/>
  
  <!-- Chart lines -->
  <line x1="30" y1="170" x2="250" y2="170" stroke="white" stroke-width="2" opacity="0.7"/>
  <line x1="30" y1="170" x2="30" y2="60" stroke="white" stroke-width="2" opacity="0.7"/>
  
  <!-- Heart icon -->
  <path d="M150,45 C145,38 135,38 135,48 C135,38 125,38 120,45 C115,52 125,62 135,72 C145,62 155,52 150,45 Z" fill="white"/>
  
  <text x="150" y="145" text-anchor="middle" fill="white" font-family="Arial, sans-serif" font-size="16" font-weight="bold">
    Life Stats
  </text>
  
  <text x="150" y="165" text-anchor="middle" fill="white" font-family="Arial, sans-serif" font-size="12" opacity="0.8">
    Track your life
  </text>
</svg>
